<svg width="32" height="32" viewBox="0 0 32 32" fill="none" xmlns="http://www.w3.org/2000/svg">
<path fill-rule="evenodd" clip-rule="evenodd" d="M16 32C24.8366 32 32 24.8366 32 16C32 7.16344 24.8366 0 16 0C7.16344 0 0 7.16344 0 16C0 24.8366 7.16344 32 16 32ZM16 30.75C23.8101 30.75 30.2025 24.6798 30.7166 17H19.3551C18.9248 18.4457 17.5855 19.5 16 19.5C14.067 19.5 12.5 17.933 12.5 16C12.5 14.067 14.067 12.5 16 12.5C17.5855 12.5 18.9248 13.5543 19.3551 15H30.7166C30.2025 7.32015 23.8101 1.25 16 1.25C8.18988 1.25 1.79752 7.32015 1.28336 15H8.06189C8.554 11.0537 11.9204 8 16 8L17.5 8C18.5 8.00002 18.5 9 18.5 9V10H16C12.6863 10 10 12.6863 10 16C10 19.3137 12.6863 22 16 22H18.5V23C18.5 23 18.5 24 17.5 24L16 24C11.9204 24 8.55399 20.9463 8.06189 17H1.28336C1.79751 24.6798 8.18987 30.75 16 30.75ZM17.5 16C17.5 16.8284 16.8284 17.5 16 17.5C15.1716 17.5 14.5 16.8284 14.5 16C14.5 15.1716 15.1716 14.5 16 14.5C16.8284 14.5 17.5 15.1716 17.5 16Z" fill="white" fill-opacity="0.87"/>
</svg>
