<svg width="106" height="32" viewBox="0 0 106 32" fill="none" xmlns="http://www.w3.org/2000/svg">
<path d="M49.8155 17.5374C49.463 17.0824 49.0166 16.7324 48.4762 16.4874C47.9358 16.2424 47.3777 16.1199 46.802 16.1199C46.0972 16.1199 45.4569 16.2541 44.8812 16.5224C44.3173 16.7791 43.8298 17.1349 43.4186 17.5899C43.0191 18.0449 42.7078 18.5816 42.4846 19.1999C42.2614 19.8066 42.1498 20.4599 42.1498 21.1599C42.1498 21.8133 42.2555 22.4316 42.467 23.0149C42.6784 23.5983 42.9839 24.1116 43.3833 24.5549C43.7828 24.9983 44.2703 25.3483 44.846 25.6049C45.4216 25.8616 46.0737 25.9899 46.802 25.9899C47.5187 25.9899 48.1472 25.8441 48.6876 25.5524C49.2281 25.2608 49.6862 24.8524 50.0622 24.3274L51.4896 25.3949C51.3956 25.5233 51.2311 25.7099 50.9962 25.9549C50.7612 26.1883 50.4499 26.4274 50.0622 26.6724C49.6745 26.9058 49.2046 27.1099 48.6524 27.2849C48.112 27.4716 47.4834 27.5649 46.7668 27.5649C45.78 27.5649 44.8871 27.3783 44.0882 27.0049C43.3011 26.6316 42.6256 26.1416 42.0617 25.5349C41.5095 24.9283 41.0866 24.2458 40.7928 23.4874C40.4991 22.7174 40.3523 21.9416 40.3523 21.1599C40.3523 20.2033 40.5109 19.3224 40.8281 18.5174C41.1453 17.7008 41.5859 17.0008 42.1498 16.4174C42.7254 15.8224 43.4127 15.3616 44.2116 15.0349C45.0105 14.7083 45.8916 14.5449 46.8549 14.5449C47.6773 14.5449 48.482 14.7024 49.2692 15.0174C50.068 15.3324 50.7201 15.8166 51.2252 16.4699L49.8155 17.5374Z" fill="#FFDD86"/>
<path d="M54.4167 23.1024C54.4167 23.5224 54.4813 23.9133 54.6105 24.2749C54.7397 24.6249 54.9218 24.9283 55.1568 25.1849C55.3918 25.4299 55.6796 25.6283 56.0203 25.7799C56.361 25.9199 56.7428 25.9899 57.1657 25.9899C57.5887 25.9899 57.9705 25.9199 58.3112 25.7799C58.6519 25.6283 58.9397 25.4299 59.1747 25.1849C59.4097 24.9283 59.5917 24.6249 59.721 24.2749C59.8502 23.9133 59.9148 23.5224 59.9148 23.1024C59.9148 22.6824 59.8502 22.2974 59.721 21.9474C59.5917 21.5858 59.4097 21.2824 59.1747 21.0374C58.9397 20.7808 58.6519 20.5824 58.3112 20.4424C57.9705 20.2908 57.5887 20.2149 57.1657 20.2149C56.7428 20.2149 56.361 20.2908 56.0203 20.4424C55.6796 20.5824 55.3918 20.7808 55.1568 21.0374C54.9218 21.2824 54.7397 21.5858 54.6105 21.9474C54.4813 22.2974 54.4167 22.6824 54.4167 23.1024ZM52.7249 23.1024C52.7249 22.4958 52.8365 21.9299 53.0598 21.4049C53.2947 20.8799 53.6119 20.4191 54.0114 20.0224C54.4108 19.6258 54.8807 19.3166 55.4211 19.0949C55.9616 18.8616 56.5431 18.7449 57.1657 18.7449C57.7884 18.7449 58.3699 18.8616 58.9104 19.0949C59.4508 19.3166 59.9207 19.6258 60.3201 20.0224C60.7196 20.4191 61.0309 20.8799 61.2541 21.4049C61.4891 21.9299 61.6066 22.4958 61.6066 23.1024C61.6066 23.7091 61.4891 24.2808 61.2541 24.8174C61.0309 25.3424 60.7196 25.8033 60.3201 26.1999C59.9207 26.5849 59.4508 26.8941 58.9104 27.1274C58.3699 27.3491 57.7884 27.4599 57.1657 27.4599C56.5431 27.4599 55.9616 27.3491 55.4211 27.1274C54.8807 26.8941 54.4108 26.5849 54.0114 26.1999C53.6119 25.8033 53.2947 25.3424 53.0598 24.8174C52.8365 24.2808 52.7249 23.7091 52.7249 23.1024Z" fill="#FFDD86"/>
<path d="M63.5935 18.9549H65.1795V20.2324H65.2147C65.4144 19.7891 65.761 19.4333 66.2544 19.1649C66.7479 18.8849 67.3177 18.7449 67.9638 18.7449C68.3632 18.7449 68.7451 18.8091 69.1093 18.9374C69.4852 19.0541 69.8083 19.2408 70.0785 19.4974C70.3604 19.7541 70.5837 20.0866 70.7481 20.4949C70.9126 20.8916 70.9948 21.3641 70.9948 21.9124V27.2499H69.4088V22.3499C69.4088 21.9649 69.356 21.6383 69.2502 21.3699C69.1445 21.0899 69.0035 20.8683 68.8273 20.7049C68.6511 20.5299 68.4455 20.4074 68.2105 20.3374C67.9873 20.2558 67.7523 20.2149 67.5056 20.2149C67.1767 20.2149 66.8712 20.2674 66.5893 20.3724C66.3073 20.4774 66.0606 20.6466 65.8491 20.8799C65.6377 21.1016 65.4732 21.3874 65.3557 21.7374C65.2382 22.0874 65.1795 22.5016 65.1795 22.9799V27.2499H63.5935V18.9549Z" fill="#FFDD86"/>
<path d="M73.3856 18.9549H74.9716V20.2324H75.0068C75.2065 19.7891 75.5531 19.4333 76.0465 19.1649C76.5399 18.8849 77.1097 18.7449 77.7559 18.7449C78.1553 18.7449 78.5371 18.8091 78.9013 18.9374C79.2773 19.0541 79.6003 19.2408 79.8706 19.4974C80.1525 19.7541 80.3757 20.0866 80.5402 20.4949C80.7047 20.8916 80.7869 21.3641 80.7869 21.9124V27.2499H79.2009V22.3499C79.2009 21.9649 79.148 21.6383 79.0423 21.3699C78.9366 21.0899 78.7956 20.8683 78.6194 20.7049C78.4432 20.5299 78.2376 20.4074 78.0026 20.3374C77.7794 20.2558 77.5444 20.2149 77.2977 20.2149C76.9688 20.2149 76.6633 20.2674 76.3813 20.3724C76.0994 20.4774 75.8527 20.6466 75.6412 20.8799C75.4297 21.1016 75.2653 21.3874 75.1478 21.7374C75.0303 22.0874 74.9716 22.5016 74.9716 22.9799V27.2499H73.3856V18.9549Z" fill="#FFDD86"/>
<path d="M84.3759 23.6799C84.3759 24.0416 84.4523 24.3741 84.605 24.6774C84.7695 24.9691 84.981 25.2199 85.2394 25.4299C85.4979 25.6399 85.7975 25.8033 86.1382 25.9199C86.4789 26.0366 86.8313 26.0949 87.1955 26.0949C87.6889 26.0949 88.1177 25.9841 88.4819 25.7624C88.8461 25.5291 89.181 25.2258 89.4864 24.8524L90.6847 25.7624C89.8036 26.8941 88.57 27.4599 86.984 27.4599C86.3261 27.4599 85.727 27.3491 85.1866 27.1274C84.6579 26.9058 84.2056 26.6024 83.8296 26.2174C83.4655 25.8208 83.1835 25.3599 82.9838 24.8349C82.7841 24.2983 82.6842 23.7208 82.6842 23.1024C82.6842 22.4841 82.7899 21.9124 83.0014 21.3874C83.2246 20.8508 83.5242 20.3899 83.9001 20.0049C84.2878 19.6083 84.746 19.2991 85.2747 19.0774C85.8033 18.8558 86.379 18.7449 87.0017 18.7449C87.7418 18.7449 88.3645 18.8733 88.8696 19.1299C89.3866 19.3866 89.8095 19.7249 90.1384 20.1449C90.4674 20.5533 90.7023 21.0199 90.8433 21.5449C90.996 22.0583 91.0724 22.5833 91.0724 23.1199V23.6799H84.3759ZM89.3807 22.4199C89.3689 22.0699 89.3102 21.7491 89.2045 21.4574C89.1105 21.1658 88.9636 20.9149 88.7639 20.7049C88.5642 20.4833 88.3116 20.3141 88.0061 20.1974C87.7124 20.0691 87.3659 20.0049 86.9664 20.0049C86.5787 20.0049 86.2204 20.0808 85.8915 20.2324C85.5743 20.3724 85.304 20.5591 85.0808 20.7924C84.8576 21.0258 84.6814 21.2883 84.5522 21.5799C84.4347 21.8599 84.3759 22.1399 84.3759 22.4199H89.3807Z" fill="#FFDD86"/>
<path d="M98.9437 21.1599C98.65 20.8566 98.3386 20.6291 98.0097 20.4774C97.6925 20.3141 97.3107 20.2324 96.8642 20.2324C96.4295 20.2324 96.0477 20.3141 95.7188 20.4774C95.4016 20.6291 95.1314 20.8449 94.9081 21.1249C94.6967 21.3933 94.5322 21.7083 94.4147 22.0699C94.309 22.4199 94.2561 22.7874 94.2561 23.1724C94.2561 23.5574 94.3207 23.9249 94.45 24.2749C94.5792 24.6133 94.7613 24.9108 94.9963 25.1674C95.2312 25.4241 95.5132 25.6283 95.8421 25.7799C96.1711 25.9199 96.5411 25.9899 96.9523 25.9899C97.3988 25.9899 97.7806 25.9141 98.0978 25.7624C98.415 25.5991 98.7087 25.3658 98.9789 25.0624L100.107 26.1824C99.6955 26.6374 99.2139 26.9641 98.6617 27.1624C98.1213 27.3608 97.5456 27.4599 96.9347 27.4599C96.2886 27.4599 95.6953 27.3549 95.1549 27.1449C94.6262 26.9349 94.168 26.6433 93.7803 26.2699C93.3926 25.8849 93.0931 25.4299 92.8816 24.9049C92.6701 24.3683 92.5644 23.7791 92.5644 23.1374C92.5644 22.4958 92.6701 21.9066 92.8816 21.3699C93.0931 20.8333 93.3868 20.3724 93.7627 19.9874C94.1504 19.6024 94.6086 19.3049 95.1372 19.0949C95.6777 18.8733 96.2768 18.7624 96.9347 18.7624C97.5456 18.7624 98.1272 18.8733 98.6793 19.0949C99.2432 19.3049 99.7308 19.6316 100.142 20.0749L98.9437 21.1599Z" fill="#FFDD86"/>
<path d="M105.947 20.3199H103.674V24.0824C103.674 24.3158 103.68 24.5491 103.691 24.7824C103.703 25.0041 103.744 25.2083 103.815 25.3949C103.897 25.5699 104.015 25.7158 104.167 25.8324C104.332 25.9374 104.567 25.9899 104.872 25.9899C105.06 25.9899 105.254 25.9724 105.454 25.9374C105.653 25.9024 105.836 25.8383 106 25.7449V27.1799C105.812 27.2849 105.565 27.3549 105.26 27.3899C104.966 27.4366 104.737 27.4599 104.573 27.4599C103.962 27.4599 103.486 27.3783 103.145 27.2149C102.816 27.0399 102.57 26.8183 102.405 26.5499C102.252 26.2816 102.158 25.9841 102.123 25.6574C102.1 25.3191 102.088 24.9808 102.088 24.6424V20.3199H100.255V18.9549H102.088V16.6274H103.674V18.9549H105.947V20.3199Z" fill="#FFDD86"/>
<path d="M43.3565 5.72994C43.1475 5.66374 42.9084 5.61645 42.5798 5.61645C42.0321 5.61645 41.6239 5.79615 41.6239 6.47718V6.93125H43.1574V7.28124C43.1574 7.73528 42.6495 8.00013 42.2015 8.00013H41.6239V11.4054H41.0861C40.6579 11.4054 40.2795 11.0932 40.2795 10.6487V6.37317C40.2795 5.65429 40.8073 4.50024 42.3707 4.50024C42.9483 4.50024 43.3964 4.80294 43.3964 5.30427V5.72994H43.3565Z" fill="white" fill-opacity="0.87"/>
<path d="M44.3824 5.49345C44.5616 5.29485 44.8006 5.1435 45.0097 5.1435H45.3184V6.29748H47.1806V6.81773C47.1806 7.08257 46.9317 7.4231 46.384 7.4231H45.3184V9.41898C45.3184 10.0811 45.6271 10.3365 46.1649 10.3365C46.5931 10.3365 46.9217 10.2798 47.1308 10.1568H47.1806V10.6108C47.1806 11.131 46.7823 11.4621 46.0055 11.4621C44.6512 11.4621 43.994 10.7621 43.994 9.57029V6.50561C43.994 6.00427 44.0936 5.81508 44.3824 5.49345Z" fill="white" fill-opacity="0.87"/>
<path d="M51.0246 7.53664C50.8254 7.46094 50.5964 7.38529 50.2478 7.38529C49.6504 7.38529 49.3218 7.69743 49.3218 8.4731V11.4054H48.9533C48.3558 11.4054 47.9774 11.1217 47.9774 10.5919V8.2461C47.9774 7.22446 48.5449 6.25018 49.959 6.25018C50.7856 6.25018 51.0744 6.69477 51.0744 7.08257V7.53664H51.0246Z" fill="white" fill-opacity="0.87"/>
<path d="M54.729 9.1825H54.2511C53.2353 9.1825 52.9465 9.4095 52.9465 9.82571C52.9465 10.2229 53.2851 10.4594 53.8726 10.4594C54.4501 10.4594 54.729 10.1946 54.729 9.67437V9.1825ZM54.0021 11.4905H53.7332C52.4585 11.4905 51.5823 10.8095 51.5823 9.87299C51.5823 8.96491 52.2793 8.27445 54.2511 8.27445H54.719V8.20819C54.719 7.48937 54.3605 7.27176 53.5639 7.27176C52.5979 7.27176 52.0603 7.62178 51.8611 7.85826H51.8113V7.45146C51.8113 6.88399 52.3491 6.20292 53.7631 6.20292C54.958 6.20292 56.0335 6.73264 56.0335 8.492V9.66492C56.0335 10.7433 55.197 11.4905 54.0021 11.4905Z" fill="white" fill-opacity="0.87"/>
<path d="M61.1521 7.94337C60.9728 7.65013 60.465 7.41368 59.6982 7.41368C58.9215 7.41368 58.2344 8.00961 58.2344 8.76633C58.2344 9.69325 58.8119 10.327 59.7181 10.327C60.4849 10.327 60.943 10.0905 61.1321 9.85405H61.1819V10.4406C61.1819 11.0554 60.5546 11.5 59.5887 11.5C58.1149 11.5 56.8403 10.4122 56.8403 8.95546C56.8403 7.49879 57.9057 6.25018 59.738 6.25018C60.5945 6.25018 61.2018 6.74206 61.2018 7.34745V7.94337H61.1521Z" fill="white" fill-opacity="0.87"/>
<path d="M63.5621 5.43671V8.48252C64.3487 7.47989 64.757 7.0353 65.2052 6.62854C65.5238 6.34478 65.8425 6.29748 66.2706 6.29748H67.0375V6.34478C66.6591 6.6475 65.4143 7.99063 64.8566 8.66226C65.2848 9.16353 65.7031 9.68385 66.1811 10.1473C66.669 10.6108 66.8882 10.7054 67.2167 10.8095C67.0773 11.2162 66.8582 11.4337 66.3106 11.4337C66.0118 11.4337 65.6633 11.3013 65.4342 11.0837C64.7472 10.4122 64.1496 9.65547 63.5621 8.90819V11.4054H63.104C62.5066 11.4054 62.2177 11.0932 62.2177 10.5068V4.59484H62.646C63.2932 4.59484 63.5621 4.94486 63.5621 5.43671Z" fill="white" fill-opacity="0.87"/>
<path fill-rule="evenodd" clip-rule="evenodd" d="M16.1118 32C25.0101 32 32.2236 24.8366 32.2236 16C32.2236 7.16344 25.0101 0 16.1118 0C7.2135 0 0 7.16344 0 16C0 24.8366 7.2135 32 16.1118 32ZM16.1118 30.75C23.9765 30.75 30.4135 24.6798 30.9313 17H19.4903C19.057 18.4457 17.7084 19.5 16.1118 19.5C14.1653 19.5 12.5874 17.933 12.5874 16C12.5874 14.067 14.1653 12.5 16.1118 12.5C17.7084 12.5 19.057 13.5543 19.4903 15H30.9313C30.4135 7.32015 23.9765 1.25 16.1118 1.25C8.24711 1.25 1.81008 7.32015 1.29233 15H8.11823C8.61377 11.0537 12.0037 8 16.1118 8L17.6223 8C18.6293 8.00002 18.6293 9 18.6293 9V10H16.1118C12.7749 10 10.0699 12.6863 10.0699 16C10.0699 19.3137 12.7749 22 16.1118 22H18.6293V23C18.6293 23 18.6293 24 17.6223 24L16.1118 24C12.0037 24 8.61376 20.9463 8.11823 17H1.29233C1.81007 24.6798 8.24711 30.75 16.1118 30.75ZM17.6223 16C17.6223 16.8284 16.946 17.5 16.1118 17.5C15.2776 17.5 14.6013 16.8284 14.6013 16C14.6013 15.1716 15.2776 14.5 16.1118 14.5C16.946 14.5 17.6223 15.1716 17.6223 16Z" fill="#FFDD86"/>
</svg>
